<svg preserveAspectRatio="none" width="100%" height="100%" overflow="visible" style="display: block;" viewBox="0 0 32.7193 32.7193" fill="none" xmlns="http://www.w3.org/2000/svg">
<g id="apples">
<path id="Vector" d="M12.9489 2.20238L11.7429 1.56663L10.4714 3.97862L11.6774 4.61437C12.7676 5.1891 13.5043 5.86016 14.0111 6.6447C14.1781 6.9033 14.3257 7.18289 14.4542 7.48691C13.2258 7.19839 12.0804 7.12318 11.0216 7.25334C9.27071 7.46861 7.83905 8.23683 6.7483 9.37422C4.61689 11.5968 3.90484 15.0773 4.12894 18.3442C4.35469 21.6354 5.55007 25.0759 7.68177 27.3683C8.76103 28.5291 10.1071 29.4208 11.7038 29.798C13.1524 30.1403 14.7192 30.038 16.3576 29.441C17.9963 30.038 19.5636 30.1403 21.0123 29.798C22.6093 29.4208 23.9557 28.5292 25.0352 27.3685C27.1675 25.0761 28.3631 21.6355 28.589 18.3443C28.8132 15.0772 28.101 11.5967 25.969 9.37413C24.8781 8.23675 23.4463 7.4686 21.6951 7.25336C20.393 7.09331 18.9599 7.24375 17.4024 7.71947C17.1613 6.79743 16.8045 5.944 16.3013 5.16516C15.5019 3.92762 14.385 2.95948 12.9489 2.20238Z" fill="var(--fill-0, white)"/>
</g>
</svg>
