<svg width="27" height="19" viewBox="0 0 27 19" fill="none" xmlns="http://www.w3.org/2000/svg">
  <path d="M12.0732 11.2599C12.8522 12.9522 14.1333 15.1765 16.0827 17.0772C15.2411 17.1889 14.2742 17.2553 13.1641 17.2553C3.14623 17.2553 0 6.35273 0 2.38257C0 1.2908 0.267303 0 0.267303 0C3.06435 5.93022 6.39721 9.86431 11.5061 11.1516C11.6915 11.1982 11.8793 11.2343 12.0732 11.2599Z" fill="#4FFFAB"/>
  <path transform="translate(10.98, 0)" d="M16.0201 14.9518C16.0201 17.2273 13.7059 19 11.0967 19C7.5784 19 4.91741 16.7943 2.31783 11.8046C1.11737 9.5 0 5.23885 0 2.5944C0 0.848505 0.32871 0 0.32871 0C1.99995 3.86774 2.79464 5.105 5.45563 8.53161C7.55913 11.2401 9.70598 12.9278 12.5668 14.023C12.6295 14.0475 12.6933 14.0521 12.7559 14.0521C13.0087 14.0521 13.2447 13.8973 13.3278 13.6529C13.4326 13.348 13.2604 13.0186 12.9449 12.9173C11.5831 12.482 10.3285 11.6649 9.27974 10.7966C9.89863 10.7407 10.5946 10.7082 11.2592 10.7082C14.031 10.7082 16.0201 12.4878 16.0201 14.9518Z" fill="#4FFFAB"/>
</svg>
