<svg preserveAspectRatio="none" width="100%" height="100%" overflow="visible" style="display: block;" viewBox="0 0 25 25.049" fill="none" xmlns="http://www.w3.org/2000/svg">
<g id="Delphi Logo">
<path d="M12.5926 0H12.5225C10.9862 0.0810252 8.9773 1.14337 8.36816 3.86582C8.2927 4.17371 8.23879 4.48521 8.18848 4.7841C8.06989 5.48812 7.95668 6.15253 7.54341 6.74311C6.74021 7.91347 5.16977 8.14034 5.06914 8.15474C5.0925 8.19435 5.11586 8.23397 5.14281 8.27539L5.15359 8.29339C5.28476 8.51306 5.43749 8.72911 5.59921 8.95778C5.70882 9.11263 5.82023 9.27289 5.93163 9.43854C6.70607 9.22247 7.93333 8.71831 8.72394 7.56415C9.3187 6.71429 9.47143 5.81761 9.6062 5.02537C9.65471 4.73728 9.70143 4.46539 9.76432 4.20791V4.1881C10.3124 1.71594 12.1703 1.46385 12.5782 1.44045C13.9887 1.44045 14.8207 2.88091 15.0129 3.25903C15.1369 3.1762 15.2645 3.09158 15.3993 3.01235C15.676 2.83613 15.9648 2.67967 16.2635 2.54419C15.9239 1.87618 14.7434 0 12.5926 0Z" fill="white"/>
<path d="M3.98919 10.1063C4.40067 10.6879 4.79059 11.2389 4.91457 11.9465C5.17332 13.3455 4.22458 14.6167 4.16169 14.6995L4.29825 14.7338H4.31981C4.56598 14.7968 4.82472 14.84 5.09785 14.8868C5.28652 14.9192 5.48058 14.9534 5.67823 14.9912C6.07354 14.2908 6.57666 13.0628 6.33049 11.689C6.15081 10.6663 5.62612 9.92448 5.16074 9.26907C4.99183 9.0296 4.83371 8.80451 4.69715 8.57764L4.68637 8.56144C3.32975 6.42418 4.46715 4.92972 4.73668 4.62362C5.73394 3.61711 7.34571 4.04925 7.74821 4.17889C7.77696 4.03124 7.8075 3.8818 7.84524 3.73055C7.91713 3.41041 8.0114 3.09574 8.12734 2.78886C7.4086 2.56379 5.22004 2.06862 3.6981 3.6261L3.67833 3.64951C2.64873 4.79467 1.97671 6.96975 3.4699 9.32668C3.63161 9.60217 3.8131 9.85784 3.98919 10.1063Z" fill="white"/>
<path d="M7.5506 16.3079C6.70248 15.7119 5.80585 15.5606 5.01703 15.4256C4.72774 15.377 4.45641 15.3302 4.20126 15.2654H4.1815C1.71442 14.7144 1.46285 12.8526 1.4377 12.4439C1.4377 11.0269 2.87518 10.1914 3.25432 9.99691C3.16987 9.87268 3.08721 9.74483 3.00635 9.61159C2.83072 9.33445 2.67519 9.04502 2.54097 8.74553C1.87074 9.10565 -0.0231449 10.294 0.000214165 12.4763V12.5051C0.0810726 14.0464 1.13942 16.0594 3.85806 16.668C4.16532 16.7454 4.47438 16.7976 4.77266 16.8481C5.47703 16.9687 6.14006 17.0821 6.72764 17.4944C7.89559 18.3011 8.12379 19.8712 8.13637 19.9756L8.25676 19.9018L8.27652 19.8892C8.49574 19.7578 8.70957 19.6065 8.93777 19.4445C9.0923 19.3346 9.25222 19.2212 9.41753 19.1095C9.2055 18.3317 8.69879 17.1001 7.5506 16.3079Z" fill="white"/>
<path d="M11.6688 18.7086C10.65 18.8886 9.90791 19.4144 9.25385 19.8789C9.01667 20.0482 8.79206 20.2084 8.56566 20.3435L8.54769 20.3543C6.41662 21.7137 4.92523 20.5757 4.61797 20.3039C3.61532 19.3063 4.04657 17.6912 4.17594 17.2861C4.0286 17.2597 3.87946 17.2273 3.72852 17.1889C3.40824 17.1177 3.09356 17.0232 2.78697 16.9062C2.56416 17.6264 2.06823 19.8195 3.62431 21.3446L3.64587 21.3662C4.4406 22.0657 5.46309 22.4499 6.52084 22.4465C7.51454 22.4315 8.48281 22.1295 9.30955 21.5769C9.58088 21.413 9.83783 21.2312 10.084 21.0565C10.6662 20.6424 11.2142 20.2516 11.9222 20.1274C13.3165 19.8699 14.5869 20.8206 14.6678 20.8837C14.6804 20.8386 14.6911 20.7936 14.7019 20.7468V20.7252C14.7648 20.4749 14.8079 20.2138 14.8546 19.9366C14.887 19.7565 14.9193 19.5584 14.9589 19.3622C14.2671 18.966 13.0416 18.4547 11.6688 18.7086Z" fill="white"/>
<path d="M19.8571 16.7736L19.8463 16.7556C19.7152 16.5359 19.5624 16.3199 19.4007 16.0912C19.2911 15.9363 19.1779 15.7761 19.0683 15.6105C18.2939 15.8265 17.0666 16.3307 16.276 17.4848C15.6812 18.3347 15.5285 19.2314 15.3937 20.0236C15.3452 20.3117 15.2985 20.5836 15.2338 20.8411V20.8609C14.6858 23.3331 12.8278 23.5833 12.4199 23.6085C11.0076 23.6085 10.1703 22.1681 9.97802 21.7882C9.85224 21.8728 9.72466 21.9574 9.59169 22.0366C9.31483 22.2127 9.02534 22.368 8.72561 22.5012C9.07599 23.1674 10.2565 25.049 12.411 25.049H12.481C14.0173 24.9679 16.0262 23.9056 16.6354 21.1814C16.7108 20.8735 16.7647 20.5638 16.815 20.2649C16.9336 19.5609 17.0468 18.8947 17.4601 18.3059C18.2633 17.1355 19.8338 16.9087 19.9344 16.8943C19.9128 16.8546 19.8841 16.815 19.8571 16.7736Z" fill="white"/>
<path d="M21.5301 15.719C21.3683 15.4471 21.1869 15.1915 21.0108 14.943C20.5993 14.3614 20.2094 13.8104 20.0854 13.101C19.8266 11.7038 20.7754 10.4308 20.8383 10.3498L20.7017 10.3155H20.6801C20.434 10.2543 20.1752 10.2111 19.9021 10.1643C19.7134 10.1319 19.5194 10.0977 19.3217 10.0599C18.9264 10.7603 18.4233 11.9883 18.6695 13.3621C18.8491 14.3848 19.3738 15.1266 19.8392 15.782C20.0063 16.0215 20.1662 16.2466 20.3028 16.4735L20.3136 16.4897C21.6702 18.6269 20.5328 20.1214 20.2633 20.4275C19.266 21.434 17.6542 21.0019 17.2517 20.8722C17.223 21.0199 17.1925 21.1693 17.1547 21.3206C17.0826 21.6406 16.9883 21.9553 16.8726 22.2623C17.4118 22.4284 17.9724 22.5145 18.5365 22.5179C19.0474 22.5341 19.5562 22.4454 20.0318 22.2575C20.5073 22.0696 20.9395 21.7863 21.3019 21.425L21.3216 21.4016C22.3512 20.251 23.0232 18.076 21.5301 15.719Z" fill="white"/>
<path d="M24.998 12.5467C24.9171 11.0072 23.8588 8.99418 21.1401 8.38559C20.8329 8.30817 20.5238 8.25595 20.2255 8.20554C19.5212 8.0849 18.8581 7.97147 18.2706 7.55914C17.1026 6.75249 16.8744 5.1806 16.8618 5.07797L16.7414 5.1518L16.7235 5.16259C16.5025 5.29583 16.2868 5.44888 16.0568 5.61273C15.9041 5.72076 15.7442 5.83239 15.5807 5.94402C15.7945 6.71826 16.2994 7.94805 17.4494 8.7421C18.2975 9.33809 19.1942 9.48934 19.983 9.62438C20.2723 9.67299 20.5436 9.71981 20.7987 9.78463H20.8185C23.2856 10.3356 23.5371 12.1974 23.5623 12.6043C23.5623 14.0231 22.1248 14.8586 21.7457 15.0531C21.8301 15.1773 21.9128 15.3052 21.9936 15.4384C22.1693 15.7155 22.3248 16.005 22.459 16.3045C23.1293 15.9443 25.0231 14.756 24.9998 12.5737L24.998 12.5467Z" fill="white"/>
<path d="M20.3817 4.74604C21.3844 5.74355 20.9531 7.35865 20.8238 7.76198C20.9711 7.79079 21.1202 7.82319 21.2712 7.861C21.5917 7.93137 21.9064 8.02588 22.2127 8.1437C22.4355 7.42347 22.9315 5.23039 21.3754 3.70531L21.3538 3.68371C20.2092 2.65199 18.0404 1.98037 15.6883 3.47484C15.417 3.63869 15.1601 3.82055 14.9139 3.9952C14.3317 4.40933 13.7819 4.80006 13.0757 4.9243C11.6814 5.18178 10.411 4.23107 10.3301 4.16805C10.3176 4.21306 10.3068 4.25808 10.296 4.30489V4.3265C10.2331 4.57678 10.19 4.83786 10.1433 5.11514C10.1109 5.2952 10.0786 5.49327 10.039 5.68953C10.738 6.08566 11.9653 6.58981 13.3363 6.34134C14.3551 6.16128 15.0972 5.63552 15.7512 5.17097C15.9884 5.00172 16.213 4.84146 16.4394 4.70641L16.4574 4.69562C18.5849 3.3362 20.0745 4.47416 20.3817 4.74604Z" fill="white"/>
</g>
</svg>
