<svg preserveAspectRatio="none" width="100%" height="100%" overflow="visible" style="display: block;" viewBox="0 0 103.245 26.566" fill="none" xmlns="http://www.w3.org/2000/svg">
<g id="hopinlogo 1 (Traced)">
<path id="Layer 1" fill-rule="evenodd" clip-rule="evenodd" d="M9.28483 0.157653C8.35673 0.360833 7.05945 1.00357 7.05945 1.26025C7.05945 1.3271 7.27035 1.44148 7.52824 1.51439C8.67849 1.8399 9.90507 2.69089 10.4359 3.53174C10.5845 3.76724 10.8609 4.44252 11.0498 5.03231C11.3814 6.06729 11.7826 6.80368 12.2063 7.15533C12.8729 7.70829 13.8728 7.71987 14.5408 7.18247C15.4449 6.4549 15.7826 5.42643 15.5569 4.08811C15.1904 1.91502 13.8232 0.584088 11.5009 0.139784C10.5249 -0.0469605 10.2076 -0.0444237 9.28483 0.157653ZM16.5456 0.711048C16.5456 0.74458 16.7318 1.15293 16.9592 1.6183C17.3647 2.44789 17.3729 2.4897 17.3729 3.74297V5.02139L16.7873 6.18278C16.0926 7.56059 15.9612 8.28992 16.2643 9.08378C16.5405 9.80704 17.0315 10.1419 17.92 10.2133C18.5397 10.263 18.7137 10.2315 19.2403 9.97382C20.01 9.59724 20.6589 8.86879 21.1636 7.81484C21.5277 7.0544 21.5594 6.90825 21.5594 5.99085C21.5594 5.05107 21.5335 4.93955 21.11 4.05679C20.2325 2.22817 18.727 1.03104 16.9041 0.712702C16.707 0.678177 16.5456 0.677515 16.5456 0.711048ZM32.2087 10.7925V20.8301H33.753H35.2972V17.0852C35.2972 14.7774 35.344 13.116 35.4191 12.7558C35.6098 11.8415 36.1271 10.8547 36.651 10.406C37.4524 9.71957 37.9683 9.54032 39.1579 9.53503C40.0876 9.53095 40.2703 9.56404 40.778 9.82888C41.0927 9.99312 41.4712 10.2895 41.6191 10.4875C42.409 11.5459 42.4585 11.9117 42.463 16.7213L42.467 20.8301H43.9561H45.4452V16.1124C45.4452 11.7119 45.4302 11.3405 45.2215 10.5874C44.9006 9.42969 44.5105 8.73058 43.794 8.02938C42.8039 7.06069 41.567 6.60094 39.9505 6.60094C38.3012 6.60094 36.9667 7.11827 35.8763 8.18028L35.2972 8.74437V4.7496V0.754839H33.753H32.2087V10.7925ZM84.062 1.33426C83.1229 1.67819 82.6563 3.01772 83.1622 3.91769C83.5289 4.57025 84.0487 4.87281 84.8026 4.87281C85.4928 4.87281 85.8489 4.72953 86.2379 4.29482C86.9901 3.45453 86.8386 2.18383 85.9037 1.49145C85.5385 1.22087 84.5921 1.14013 84.062 1.33426ZM5.07398 3.51762C3.62591 3.81268 1.95315 5.08835 1.24798 6.43549C0.920045 7.0619 0.507949 8.35908 0.605789 8.45681C0.630718 8.48174 1.02263 8.32102 1.47675 8.09964C2.86217 7.42425 4.48595 7.38554 5.66477 7.99971C7.36444 8.88534 7.29715 8.86217 8.17087 8.86217C8.92226 8.86217 9.04911 8.82997 9.4237 8.54428C9.93562 8.1538 10.1487 7.67067 10.1455 6.90781C10.1401 5.61229 9.06974 4.34424 7.44485 3.70856C6.86995 3.48376 5.70194 3.38967 5.07398 3.51762ZM53.5915 6.80942C51.0728 7.45878 49.2558 9.16187 48.4619 11.6175C48.2206 12.364 48.1753 12.709 48.1721 13.8259C48.1675 15.4037 48.3483 16.1887 49.01 17.4659C49.8036 18.9976 51.1896 20.1682 52.9641 20.8053C54.0379 21.1909 56.2665 21.2861 57.4349 20.9963C59.8261 20.4032 61.6919 18.6664 62.5579 16.2277C62.8877 15.299 62.9666 13.2677 62.7144 12.1996C62.1856 9.9608 60.666 8.09865 58.6458 7.2139C57.2538 6.60425 55.0661 6.4292 53.5915 6.80942ZM71.9378 6.7685C70.8228 7.0404 70.121 7.42326 69.2708 8.22318L68.7745 8.69021L68.7425 7.81098L68.7104 6.93186H67.1707H65.6308V16.7489V26.5659H67.1751H68.7193V22.8017V19.0376L69.0778 19.4141C70.2328 20.6272 71.5837 21.1611 73.498 21.1611C75.5326 21.1611 76.9904 20.5895 78.3052 19.2763C79.5275 18.0555 80.1942 16.6561 80.424 14.8292C80.6206 13.267 80.3998 11.9909 79.6686 10.4616C78.769 8.57958 77.1826 7.2899 75.1356 6.77622C74.3084 6.56863 72.7727 6.56488 71.9378 6.7685ZM96.0195 6.81372C95.0587 7.08783 94.4582 7.43142 93.7357 8.1206L93.0965 8.73025V7.83105V6.93186H91.5522H90.008V13.881V20.8301H91.5522H93.0965V17.0948C93.0965 15.0405 93.1465 13.0959 93.2077 12.7736C93.463 11.4266 94.156 10.4385 95.2378 9.87829C95.851 9.56084 96.0001 9.5304 96.9571 9.52775C97.9173 9.5251 98.0551 9.55257 98.6032 9.85535C98.9321 10.0371 99.3421 10.3801 99.5143 10.6176C100.15 11.4945 100.184 11.7704 100.239 16.5007L100.289 20.8301H101.767H103.244L103.243 16.225C103.24 11.0746 103.196 10.6438 102.528 9.28596C101.661 7.52507 99.9486 6.58484 97.6582 6.61297C97.1043 6.6197 96.3948 6.70662 96.0195 6.81372ZM83.2794 13.881V20.8301H84.8237H86.3679V13.881V6.93186H84.8237H83.2794V13.881ZM23.4 7.8958C23.0901 8.78375 22.5162 9.68096 21.9706 10.1309C21.5965 10.4392 20.5435 11.0131 20.352 11.0131C20.3039 11.0131 19.9341 11.1115 19.5302 11.2318C17.8361 11.7364 16.9958 13.1795 17.6983 14.378C18.226 15.2784 18.9579 15.6463 20.2184 15.6446C22.743 15.6413 24.3358 14.2478 24.8747 11.5707C25.0357 10.7714 25.0433 10.5207 24.9281 9.80582C24.8543 9.34751 24.7154 8.77393 24.6194 8.53126C24.3776 7.92029 23.9052 7.15246 23.7709 7.15246C23.7096 7.15246 23.5427 7.48702 23.4 7.8958ZM3.66771 9.51936C1.39336 10.0347 0 11.9637 0 14.5969C0 15.7537 0.427317 17.1547 0.967475 17.7692C1.21423 18.0498 1.27313 18.0146 1.42888 17.4935C1.50598 17.2356 1.68302 16.8013 1.82222 16.5283C2.51129 15.1769 3.34419 14.4902 4.85337 14.0297C5.36904 13.8723 5.9681 13.654 6.18452 13.5445C6.74122 13.263 7.36389 12.5347 7.45268 12.0614C7.79121 10.2574 5.92928 9.00689 3.66771 9.51936ZM56.8159 9.58919C57.7498 9.89363 58.1172 10.1303 58.7776 10.8529C59.5998 11.7526 59.8357 12.441 59.8338 13.9362C59.8325 15.0625 59.8077 15.2023 59.4879 15.8867C58.7877 17.3851 57.4007 18.3127 55.7519 18.3853C53.8526 18.4689 52.3134 17.5577 51.5296 15.8858C51.2609 15.3126 51.2362 15.1435 51.2362 13.881C51.2362 12.5908 51.2562 12.4614 51.5483 11.8663C52.521 9.88458 54.757 8.9181 56.8159 9.58919ZM75.0459 9.83638C76.5908 10.5999 77.4307 12.0243 77.4307 13.881C77.4307 15.7509 76.486 17.3187 74.9156 18.0549C74.3567 18.3169 74.1596 18.3483 73.0763 18.3483C71.9908 18.3483 71.7966 18.3172 71.2323 18.0527C69.4228 17.2046 68.345 15.107 68.7075 13.1395C69.1473 10.7526 70.8955 9.31387 73.2595 9.3934C74.105 9.42186 74.3103 9.47271 75.0459 9.83638ZM5.75069 15.0536C4.76778 15.4825 3.67533 17.0795 3.41346 18.4701C3.07582 20.2636 4.46643 22.7792 6.34391 23.7712C6.9883 24.1117 8.26617 24.5135 8.37107 24.4086C8.39997 24.3797 8.2718 24.0467 8.08616 23.6686C7.60953 22.6978 7.46018 21.9536 7.53188 20.9074C7.58659 20.1099 7.65322 19.9038 8.20837 18.8147C8.77567 17.7021 8.82431 17.5481 8.82431 16.8632C8.82431 16.0166 8.59389 15.5582 7.95048 15.1246C7.65178 14.9233 7.43459 14.8755 6.85009 14.8828C6.44958 14.8876 5.95487 14.9646 5.75069 15.0536ZM15.7061 16.4003C15.0527 16.8123 14.8358 17.2574 14.837 18.1829C14.838 18.8905 14.8802 19.074 15.129 19.4513C15.8517 20.5479 16.9428 21.2861 18.2359 21.5536C19.0182 21.7154 19.1497 21.715 19.8819 21.5484C22.0034 21.0659 23.75 19.3616 24.2274 17.3078C24.3047 16.9751 24.3438 16.6787 24.3143 16.6493C24.2848 16.6197 23.9861 16.7347 23.6505 16.9047C22.4795 17.4975 21.2149 17.6709 20.0966 17.3919C19.5947 17.2667 19.3452 17.1484 18.3206 16.5502C17.6472 16.157 16.2214 16.0753 15.7061 16.4003ZM10.7215 17.7055C10.2377 17.9439 9.66229 18.6312 9.50389 19.1599C9.43341 19.395 9.37638 19.929 9.37704 20.3466C9.37892 21.5385 9.75715 22.5501 10.5405 23.4587C11.0791 24.0833 11.6136 24.4107 12.643 24.7467C13.6348 25.0706 15.1623 25.1211 16.0268 24.8588C16.6847 24.6591 17.8365 24.0529 17.907 23.8691C17.9406 23.7814 17.7345 23.6615 17.3352 23.5365C16.384 23.2383 15.898 22.955 15.207 22.296C14.5377 21.6576 14.2095 21.0815 13.8985 20C13.5698 18.8566 13.2006 18.2661 12.5299 17.8109C12.0252 17.4685 11.2894 17.4256 10.7215 17.7055Z" fill="var(--fill-0, white)"/>
<path id="Layer 2" fill-rule="evenodd" clip-rule="evenodd" d="M9.35209 0.150915C8.3931 0.34174 7.05964 0.990768 7.05964 1.26675C7.05964 1.33712 7.30573 1.45371 7.60653 1.52585C8.23228 1.67598 9.25866 2.26004 9.80168 2.77504C10.3728 3.31664 10.676 3.86474 11.05 5.0323C11.4581 6.30631 11.8604 6.93736 12.5053 7.31537C13.0782 7.65103 13.643 7.67221 14.2167 7.37957C15.3606 6.79595 15.8417 5.51003 15.5122 3.91691C15.0715 1.78562 13.7884 0.577349 11.5011 0.139774C10.5342 -0.0452058 10.3324 -0.0442129 9.35209 0.150915ZM16.564 0.822114C16.5898 0.876163 16.7689 1.24325 16.9623 1.63803C17.7023 3.14975 17.6387 4.5645 16.7542 6.26208C16.0463 7.62103 15.9326 8.44996 16.3447 9.24823C17.0526 10.6195 19.1174 10.5495 20.3475 9.11233C21.3237 7.97201 21.767 6.46537 21.5027 5.18728C21.1704 3.58081 19.8514 1.9021 18.3658 1.19505C17.6408 0.84991 16.4606 0.605698 16.564 0.822114ZM32.2089 10.7925V20.8301H33.7532H35.2974V17.0852C35.2974 14.7774 35.3442 13.116 35.4193 12.7558C35.61 11.8415 36.1273 10.8547 36.6512 10.406C37.4526 9.71956 37.9684 9.54031 39.1581 9.53502C40.0878 9.53094 40.2705 9.56403 40.7782 9.82887C41.0929 9.99311 41.4714 10.2895 41.6193 10.4875C42.4092 11.5459 42.4587 11.9117 42.4632 16.7213L42.4672 20.8301H43.9563H45.4454V16.1124C45.4454 11.7119 45.4304 11.3405 45.2217 10.5874C44.9008 9.42968 44.5107 8.73057 43.7941 8.02937C42.8041 7.06068 41.5672 6.60093 39.9507 6.60093C38.3013 6.60093 36.9669 7.11826 35.8765 8.18026L35.2974 8.74436V4.74959V0.754828H33.7532H32.2089V10.7925ZM84.0622 1.33425C83.1231 1.67818 82.6565 3.01771 83.1624 3.91768C83.5291 4.57024 84.0489 4.8728 84.8028 4.8728C85.493 4.8728 85.849 4.72952 86.2381 4.29481C86.9903 3.45452 86.8388 2.18382 85.9039 1.49144C85.5387 1.22086 84.5922 1.14012 84.0622 1.33425ZM5.21878 3.5164C3.68952 3.73171 1.91727 5.08393 1.1757 6.60093C0.793606 7.38266 0.508691 8.56346 0.727755 8.45768C1.96007 7.86204 2.43372 7.68644 3.03873 7.60084C3.93219 7.47432 4.92327 7.61694 5.61918 7.97234C5.89582 8.11364 6.39495 8.37164 6.72851 8.5457C7.24065 8.81297 7.4649 8.86216 8.17106 8.86216C8.92245 8.86216 9.0493 8.82996 9.42389 8.54427C9.93581 8.15379 10.1489 7.67066 10.1457 6.9078C10.1373 4.87799 7.6598 3.17258 5.21878 3.5164ZM53.5917 6.80941C51.073 7.45877 49.256 9.16186 48.4621 11.6174C48.2208 12.364 48.1755 12.709 48.1723 13.8258C48.1677 15.4037 48.3485 16.1887 49.0102 17.4659C49.8038 18.9975 51.1898 20.1682 52.9643 20.8053C54.0381 21.1909 56.2667 21.2861 57.4351 20.9963C59.8263 20.4032 61.6921 18.6664 62.5581 16.2277C62.8879 15.2989 62.9668 13.2677 62.7146 12.1996C62.1858 9.96079 60.6662 8.09864 58.646 7.21389C57.254 6.60424 55.0663 6.42919 53.5917 6.80941ZM71.938 6.76849C70.823 7.04038 70.1211 7.42325 69.271 8.22317L68.7747 8.6902L68.7427 7.81097L68.7106 6.93185H67.1709H65.631V16.7489V26.5659H67.1753H68.7195V22.8017V19.0376L69.078 19.4141C70.233 20.6272 71.5839 21.161 73.4982 21.161C75.5328 21.161 76.9905 20.5895 78.3054 19.2763C79.5276 18.0554 80.1944 16.6561 80.4242 14.8292C80.6208 13.267 80.4 11.9909 79.6688 10.4616C78.7692 8.57957 77.1828 7.28989 75.1358 6.77621C74.3086 6.56862 72.7729 6.56486 71.938 6.76849ZM96.0197 6.81371C95.0589 7.08782 94.4584 7.43141 93.7359 8.12059L93.0967 8.73024V7.83104V6.93185H91.5524H90.0082V13.881V20.8301H91.5524H93.0967V17.0948C93.0967 15.0405 93.1466 13.0958 93.2079 12.7735C93.4632 11.4266 94.1562 10.4385 95.238 9.87828C95.8512 9.56083 96.0003 9.53039 96.9573 9.52774C97.9175 9.52509 98.0553 9.55256 98.6034 9.85534C98.9323 10.0371 99.3423 10.3801 99.5145 10.6175C100.15 11.4945 100.184 11.7704 100.239 16.5007L100.289 20.8301H101.767H103.245L103.243 16.225C103.241 11.0746 103.196 10.6438 102.528 9.28595C101.662 7.52506 99.9488 6.58483 97.6584 6.61296C97.1045 6.61969 96.395 6.70661 96.0197 6.81371ZM83.2796 13.881V20.8301H84.8239H86.3681V13.881V6.93185H84.8239H83.2796V13.881ZM23.4527 7.79961C22.9912 9.44446 21.7676 10.62 20.0133 11.1036C18.6776 11.4721 18.0232 11.9182 17.6062 12.7449C17.111 13.7269 17.8353 15.0979 19.0716 15.5183C20.0691 15.8575 21.8807 15.5722 22.8651 14.9208C24.326 13.954 25.2229 11.7458 24.931 9.83538C24.7534 8.67399 24.0885 7.15245 23.7584 7.15245C23.6902 7.15245 23.5526 7.44366 23.4527 7.79961ZM3.72317 9.52145C1.90161 9.89836 0.680434 11.1221 0.173478 13.0784C-0.0667642 14.0059 -0.0485638 15.2928 0.217489 16.1862C0.433244 16.9108 1.01113 17.9622 1.19368 17.9622C1.24607 17.9622 1.35196 17.7513 1.42907 17.4934C1.62 16.8552 2.05648 16.0083 2.45622 15.5009C2.96262 14.8578 3.80766 14.3506 4.97434 13.9893C5.55642 13.809 6.19706 13.5495 6.39804 13.4128C7.62484 12.5775 7.85118 11.2014 6.91933 10.2423C6.20048 9.50248 5.05873 9.24492 3.72317 9.52145ZM56.8161 9.58918C57.75 9.89362 58.1174 10.1303 58.7778 10.8529C59.6 11.7526 59.8359 12.441 59.834 13.9361C59.8327 15.0625 59.8078 15.2023 59.4881 15.8866C58.7879 17.3851 57.4009 18.3127 55.7521 18.3853C53.8528 18.4689 52.3136 17.5576 51.5298 15.8858C51.2611 15.3126 51.2364 15.1435 51.2364 13.881C51.2364 12.5908 51.2564 12.4614 51.5485 11.8663C52.5212 9.88457 54.7571 8.91809 56.8161 9.58918ZM75.0461 9.83637C76.591 10.5999 77.4309 12.0242 77.4309 13.881C77.4309 15.7509 76.4862 17.3187 74.9158 18.0549C74.3569 18.3169 74.1598 18.3483 73.0765 18.3483C71.991 18.3483 71.7968 18.3172 71.2325 18.0527C69.423 17.2046 68.3451 15.107 68.7077 13.1395C69.1475 10.7526 70.8957 9.31386 73.2597 9.39339C74.1052 9.42185 74.3105 9.4727 75.0461 9.83637ZM5.57054 15.1946C4.53842 15.7911 3.76475 16.9187 3.46605 18.2615C3.23441 19.3026 3.34703 19.9659 3.97135 21.2353C4.73322 22.7847 6.04584 23.8714 7.66157 24.2907C8.02303 24.3845 8.34236 24.4375 8.37126 24.4086C8.40016 24.3797 8.26647 24.0399 8.07422 23.6535C7.61513 22.731 7.46357 21.9777 7.52468 20.922C7.57013 20.1371 7.63179 19.9461 8.19963 18.8324C8.77619 17.7014 8.8245 17.5493 8.8245 16.8632C8.8245 16.0166 8.59408 15.5582 7.95068 15.1246C7.37765 14.7384 6.30516 14.7699 5.57054 15.1946ZM15.7063 16.4014C15.1764 16.7339 14.8827 17.2286 14.8127 17.9069C14.7286 18.7212 14.9981 19.3995 15.7011 20.1427C16.7784 21.2818 18.3358 21.847 19.6792 21.5865C21.4838 21.2366 22.9997 20.0854 23.8159 18.4453C24.1187 17.837 24.4032 16.6386 24.2449 16.6386C24.2158 16.6386 23.8986 16.7847 23.5401 16.9634C22.0187 17.7218 20.3676 17.7149 19.0276 16.945C18.0301 16.3718 17.7136 16.266 16.8767 16.2258C16.2007 16.1934 15.9866 16.2255 15.7063 16.4014ZM10.7548 17.6941C10.2287 17.9672 9.85165 18.3865 9.59431 18.9849C9.39411 19.4501 9.36268 19.6943 9.40073 20.4885C9.50309 22.6293 10.6066 24.0819 12.6325 24.7433C13.6586 25.0782 15.0647 25.121 16.0018 24.8458C16.7129 24.6368 17.8328 24.0628 17.9071 23.8691C17.9408 23.7814 17.7347 23.6615 17.3354 23.5364C16.3821 23.2376 15.8979 22.9548 15.1996 22.2888C14.5306 21.6507 14.1173 20.928 13.8891 19.997C13.7566 19.4566 13.3743 18.6248 13.0997 18.2797C13.0213 18.1814 12.765 17.9704 12.5301 17.8109C12.0298 17.4715 11.279 17.4221 10.7548 17.6941Z" fill="var(--fill-0, white)"/>
<path id="Layer 3" fill-rule="evenodd" clip-rule="evenodd" d="M9.35209 0.150915C8.41152 0.3381 7.05964 0.990328 7.05964 1.25682C7.05964 1.32179 7.30451 1.43772 7.60388 1.51449C8.23449 1.67609 9.26781 2.26864 9.80168 2.77504C10.3728 3.31664 10.676 3.86474 11.05 5.0323C11.4581 6.30631 11.8604 6.93736 12.5053 7.31537C13.0782 7.65103 13.643 7.67221 14.2167 7.37957C15.3606 6.79595 15.8417 5.51003 15.5122 3.91691C15.0715 1.78562 13.7884 0.577349 11.5011 0.139774C10.5342 -0.0452058 10.3324 -0.0442129 9.35209 0.150915ZM16.564 0.822114C16.5898 0.876163 16.7678 1.24292 16.9596 1.63726C17.7169 3.19343 17.6563 4.53064 16.7499 6.27046C16.0419 7.62952 15.9301 8.45823 16.348 9.24823C17.0729 10.6184 19.123 10.543 20.3575 9.10064C21.3734 7.91388 21.8047 6.3212 21.4604 5.02833C21.0222 3.38315 19.8111 1.88302 18.3658 1.19505C17.6408 0.84991 16.4606 0.605698 16.564 0.822114ZM32.2089 10.7925V20.8301H33.7532H35.2974V17.0852C35.2974 14.7774 35.3442 13.116 35.4193 12.7558C35.61 11.8415 36.1273 10.8547 36.6512 10.406C37.4526 9.71956 37.9684 9.54031 39.1581 9.53502C40.0878 9.53094 40.2705 9.56403 40.7782 9.82887C41.0929 9.99311 41.4714 10.2895 41.6193 10.4875C42.4092 11.5459 42.4587 11.9117 42.4632 16.7213L42.4672 20.8301H43.9563H45.4454V16.1124C45.4454 11.7119 45.4304 11.3405 45.2217 10.5874C44.9008 9.42968 44.5107 8.73057 43.7941 8.02937C42.8041 7.06068 41.5672 6.60093 39.9507 6.60093C38.3013 6.60093 36.9669 7.11826 35.8765 8.18026L35.2974 8.74436V4.74959V0.754828H33.7532H32.2089V10.7925ZM84.0622 1.33425C83.1231 1.67818 82.6565 3.01771 83.1624 3.91768C83.5291 4.57024 84.0489 4.8728 84.8028 4.8728C85.493 4.8728 85.849 4.72952 86.2381 4.29481C86.9903 3.45452 86.8388 2.18382 85.9039 1.49144C85.5387 1.22086 84.5922 1.14012 84.0622 1.33425ZM5.23963 3.51728C4.54107 3.62063 3.8156 3.93665 2.98976 4.49744C2.16038 5.06065 1.62695 5.68674 1.15066 6.65609C0.788753 7.39281 0.514538 8.5607 0.727755 8.45768C2.5513 7.57635 3.32784 7.39733 4.44797 7.59974C5.09038 7.71578 5.33272 7.81626 6.7563 8.55673C7.23635 8.80635 7.47835 8.8583 8.17128 8.86007C8.92411 8.86194 9.04853 8.83062 9.42389 8.54427C9.93581 8.15379 10.1489 7.67066 10.1457 6.9078C10.1373 4.89078 7.63708 3.16287 5.23963 3.51728ZM53.5917 6.80941C51.073 7.45877 49.256 9.16186 48.4621 11.6174C48.2208 12.364 48.1755 12.709 48.1723 13.8258C48.1677 15.4037 48.3485 16.1887 49.0102 17.4659C49.8038 18.9975 51.1898 20.1682 52.9643 20.8053C54.0381 21.1909 56.2667 21.2861 57.4351 20.9963C59.8263 20.4032 61.6921 18.6664 62.5581 16.2277C62.8879 15.2989 62.9668 13.2677 62.7146 12.1996C62.1858 9.96079 60.6662 8.09864 58.646 7.21389C57.254 6.60424 55.0663 6.42919 53.5917 6.80941ZM71.938 6.76849C70.823 7.04038 70.1211 7.42325 69.271 8.22317L68.7747 8.6902L68.7427 7.81097L68.7106 6.93185H67.1709H65.631V16.7489V26.5659H67.1753H68.7195V22.8017V19.0376L69.078 19.4141C70.233 20.6272 71.5839 21.161 73.4982 21.161C75.5328 21.161 76.9905 20.5895 78.3054 19.2763C79.5276 18.0554 80.1944 16.6561 80.4242 14.8292C80.6208 13.267 80.4 11.9909 79.6688 10.4616C78.7692 8.57957 77.1828 7.28989 75.1358 6.77621C74.3086 6.56862 72.7729 6.56486 71.938 6.76849ZM96.0197 6.81371C95.0589 7.08782 94.4584 7.43141 93.7359 8.12059L93.0967 8.73024V7.83104V6.93185H91.5524H90.0082V13.881V20.8301H91.5524H93.0967V17.0948C93.0967 15.0405 93.1466 13.0958 93.2079 12.7735C93.4632 11.4266 94.1562 10.4385 95.238 9.87828C95.8512 9.56083 96.0003 9.53039 96.9573 9.52774C97.9175 9.52509 98.0553 9.55256 98.6034 9.85534C98.9323 10.0371 99.3423 10.3801 99.5145 10.6175C100.15 11.4945 100.184 11.7704 100.239 16.5007L100.289 20.8301H101.767H103.245L103.243 16.225C103.241 11.0746 103.196 10.6438 102.528 9.28595C101.662 7.52506 99.9488 6.58483 97.6584 6.61296C97.1045 6.61969 96.395 6.70661 96.0197 6.81371ZM83.2796 13.881V20.8301H84.8239H86.3681V13.881V6.93185H84.8239H83.2796V13.881ZM23.4527 7.79961C22.9912 9.44446 21.7676 10.62 20.0133 11.1036C18.6776 11.4721 18.0232 11.9182 17.6062 12.7449C17.1008 13.747 17.8467 15.1176 19.1234 15.5328C19.7628 15.7407 21.3062 15.6245 22.106 15.3081C24.4158 14.3945 25.6078 11.2231 24.6323 8.5864C24.3907 7.93363 23.9147 7.15245 23.7584 7.15245C23.6902 7.15245 23.5526 7.44366 23.4527 7.79961ZM3.79718 9.50656C1.91341 9.89549 0.684405 11.1071 0.173478 13.0784C-0.0667642 14.0059 -0.0485638 15.2928 0.217489 16.1862C0.433244 16.9108 1.01113 17.9622 1.19368 17.9622C1.24607 17.9622 1.35208 17.7513 1.42918 17.4934C1.67692 16.6655 2.20914 15.7428 2.75194 15.2C3.3638 14.588 4.05419 14.2183 5.09777 13.9434C6.45716 13.5854 7.36728 12.784 7.47218 11.8527C7.54906 11.171 7.344 10.6587 6.78984 10.1479C6.06426 9.47909 5.01681 9.25463 3.79718 9.50656ZM56.8161 9.58918C57.75 9.89362 58.1174 10.1303 58.7778 10.8529C59.6 11.7526 59.8359 12.441 59.834 13.9361C59.8327 15.0625 59.8078 15.2023 59.4881 15.8866C58.7879 17.3851 57.4009 18.3127 55.7521 18.3853C53.8528 18.4689 52.3136 17.5576 51.5298 15.8858C51.2611 15.3126 51.2364 15.1435 51.2364 13.881C51.2364 12.5908 51.2564 12.4614 51.5485 11.8663C52.5212 9.88457 54.7571 8.91809 56.8161 9.58918ZM75.0461 9.83637C76.591 10.5999 77.4309 12.0242 77.4309 13.881C77.4309 15.7509 76.4862 17.3187 74.9158 18.0549C74.3569 18.3169 74.1598 18.3483 73.0765 18.3483C71.991 18.3483 71.7968 18.3172 71.2325 18.0527C69.423 17.2046 68.3451 15.107 68.7077 13.1395C69.1475 10.7526 70.8957 9.31386 73.2597 9.39339C74.1052 9.42185 74.3105 9.4727 75.0461 9.83637ZM5.56965 15.2008C4.8829 15.6013 4.53545 15.962 4.0382 16.7901C3.49837 17.6891 3.24147 18.8743 3.40538 19.7093C3.71953 21.3098 4.98052 23.0497 6.35414 23.778C7.02346 24.133 8.38329 24.5268 8.38329 24.3656C8.38329 24.3189 8.23559 23.9882 8.05491 23.6309C7.62219 22.7745 7.46423 21.9654 7.52501 20.9166C7.57002 20.1382 7.633 19.9438 8.19963 18.8324C8.77619 17.7014 8.8245 17.5493 8.8245 16.8632C8.8245 16.0166 8.59408 15.5582 7.95068 15.1246C7.37643 14.7375 6.30505 14.7718 5.56965 15.2008ZM15.8288 16.3463C15.1968 16.6363 14.7801 17.3769 14.782 18.2069C14.7863 20.0879 17.5511 22.016 19.6455 21.5985C21.445 21.2399 23.0149 20.0549 23.8116 18.454C24.1177 17.839 24.4042 16.6386 24.2449 16.6386C24.2158 16.6386 23.8986 16.7847 23.5401 16.9634C22.0541 17.704 20.3974 17.7135 19.0828 16.9888C17.8443 16.3061 17.7015 16.2554 16.9318 16.225C16.4484 16.2059 16.0361 16.2513 15.8288 16.3463ZM10.7548 17.6945C10.2328 17.966 9.91883 18.305 9.63821 18.8998C9.12144 19.9958 9.37569 21.842 10.2091 23.0446C11.5528 24.9834 14.7285 25.615 17.0973 24.4147C17.3703 24.2763 17.684 24.0631 17.7943 23.941C17.9911 23.7233 17.9878 23.7175 17.6288 23.6428C17.4275 23.6009 16.9103 23.3993 16.4796 23.1949C15.1494 22.5637 14.2445 21.4465 13.8891 19.997C13.7155 19.2885 13.3351 18.5318 12.9678 18.1648C12.3466 17.5435 11.4227 17.3472 10.7548 17.6945Z" fill="var(--fill-0, white)"/>
<path id="Layer 4" fill-rule="evenodd" clip-rule="evenodd" d="M9.35209 0.150915C8.41152 0.3381 7.05964 0.990328 7.05964 1.25682C7.05964 1.32179 7.30451 1.43772 7.60388 1.51449C8.23449 1.67609 9.26781 2.26864 9.80169 2.77504C10.3728 3.31664 10.676 3.86474 11.05 5.0323C11.2389 5.62199 11.5344 6.31106 11.7069 6.56343C12.3278 7.47256 13.3622 7.81549 14.198 7.38906C15.3611 6.79573 15.8438 5.52051 15.5122 3.91691C15.0715 1.78562 13.7884 0.577349 11.5011 0.139774C10.5342 -0.0452058 10.3324 -0.0442129 9.35209 0.150915ZM16.564 0.822114C16.5898 0.876163 16.7678 1.24292 16.9596 1.63726C17.7169 3.19343 17.6563 4.53064 16.7499 6.27046C16.0419 7.62952 15.9301 8.45823 16.348 9.24823C17.0729 10.6184 19.123 10.543 20.3575 9.10064C21.3734 7.91388 21.8047 6.3212 21.4604 5.02833C21.0222 3.38315 19.8111 1.88302 18.3658 1.19505C17.6408 0.84991 16.4606 0.605698 16.564 0.822114ZM32.2089 10.7925V20.8301H33.7532H35.2974V17.0852C35.2974 14.7774 35.3442 13.116 35.4193 12.7558C35.61 11.8415 36.1273 10.8547 36.6512 10.406C37.4526 9.71956 37.9685 9.54031 39.1581 9.53502C40.0878 9.53094 40.2705 9.56403 40.7782 9.82887C41.0929 9.99311 41.4714 10.2895 41.6193 10.4875C42.4092 11.5459 42.4587 11.9117 42.4632 16.7213L42.4672 20.8301H43.9563H45.4454V16.1124C45.4454 11.7119 45.4304 11.3405 45.2217 10.5874C44.9008 9.42968 44.5107 8.73057 43.7941 8.02937C42.8041 7.06068 41.5672 6.60093 39.9507 6.60093C38.3013 6.60093 36.9669 7.11826 35.8765 8.18026L35.2974 8.74436V4.74959V0.754828H33.7532H32.2089V10.7925ZM84.0622 1.33425C83.1231 1.67818 82.6565 3.01771 83.1624 3.91768C83.5291 4.57024 84.0489 4.8728 84.8028 4.8728C85.493 4.8728 85.849 4.72952 86.2381 4.29481C86.9903 3.45452 86.8388 2.18382 85.9039 1.49144C85.5387 1.22086 84.5922 1.14012 84.0622 1.33425ZM5.23963 3.51728C3.64794 3.75267 1.93128 5.06528 1.15971 6.63689C0.790518 7.38906 0.512221 8.5617 0.727755 8.45768C2.5513 7.57635 3.32784 7.39733 4.44797 7.59974C5.09038 7.71577 5.33272 7.81626 6.7563 8.55673C7.23635 8.80635 7.47835 8.8583 8.17128 8.86007C8.92411 8.86194 9.04853 8.83062 9.42389 8.54427C9.93581 8.15379 10.1489 7.67066 10.1457 6.9078C10.1373 4.89078 7.63708 3.16287 5.23963 3.51728ZM53.5917 6.80941C51.073 7.45877 49.256 9.16186 48.4621 11.6174C48.2208 12.364 48.1755 12.709 48.1723 13.8258C48.1677 15.4037 48.3485 16.1887 49.0102 17.4659C49.8038 18.9975 51.1898 20.1682 52.9643 20.8053C54.0381 21.1909 56.2667 21.2861 57.4351 20.9963C59.8263 20.4031 61.6921 18.6664 62.5581 16.2277C62.8879 15.2989 62.9668 13.2677 62.7146 12.1996C62.1858 9.96079 60.6662 8.09864 58.646 7.21389C57.254 6.60424 55.0663 6.42919 53.5917 6.80941ZM71.938 6.76849C70.823 7.04038 70.1211 7.42325 69.271 8.22317L68.7747 8.6902L68.7427 7.81097L68.7106 6.93185H67.1709H65.631V16.7489V26.5659H67.1753H68.7195V22.8017V19.0376L69.078 19.4141C70.233 20.6272 71.5839 21.161 73.4982 21.161C75.5328 21.161 76.9905 20.5895 78.3054 19.2763C79.5276 18.0554 80.1944 16.6561 80.4242 14.8292C80.6208 13.267 80.4 11.9909 79.6688 10.4616C78.7692 8.57957 77.1828 7.28989 75.1358 6.77621C74.3086 6.56861 72.7729 6.56486 71.938 6.76849ZM96.0197 6.81371C95.0589 7.08782 94.4584 7.43141 93.7359 8.12059L93.0967 8.73024V7.83104V6.93185H91.5524H90.0082V13.881V20.8301H91.5524H93.0967V17.0948C93.0967 15.0405 93.1467 13.0958 93.2079 12.7735C93.4632 11.4266 94.1561 10.4385 95.238 9.87828C95.8512 9.56083 96.0003 9.53039 96.9573 9.52774C97.9175 9.52509 98.0553 9.55256 98.6034 9.85534C98.9323 10.0371 99.3423 10.3801 99.5145 10.6175C100.15 11.4945 100.184 11.7704 100.239 16.5007L100.289 20.8301H101.767H103.245L103.243 16.2249C103.241 11.0746 103.196 10.6438 102.528 9.28595C101.662 7.52506 99.9488 6.58483 97.6584 6.61296C97.1045 6.61969 96.395 6.70661 96.0197 6.81371ZM83.2796 13.881V20.8301H84.8239H86.3681V13.881V6.93185H84.8239H83.2796V13.881ZM23.4527 7.79961C22.9912 9.44446 21.7676 10.62 20.0133 11.1036C18.6776 11.4721 18.0232 11.9182 17.6062 12.7449C17.1008 13.747 17.8467 15.1176 19.1234 15.5328C19.7628 15.7407 21.3062 15.6245 22.106 15.3081C24.4159 14.3945 25.6078 11.2231 24.6323 8.5864C24.3907 7.93363 23.9147 7.15245 23.7584 7.15245C23.6902 7.15245 23.5526 7.44366 23.4527 7.79961ZM3.79718 9.50656C1.91341 9.89549 0.684405 11.1071 0.173478 13.0784C-0.0667642 14.0059 -0.0485638 15.2928 0.217489 16.1862C0.433244 16.9108 1.01113 17.9622 1.19368 17.9622C1.24607 17.9622 1.35208 17.7513 1.42918 17.4934C1.67692 16.6655 2.20914 15.7428 2.75194 15.2C3.3638 14.588 4.05419 14.2183 5.09777 13.9434C6.45716 13.5854 7.36728 12.784 7.47218 11.8527C7.54906 11.171 7.344 10.6587 6.78984 10.1479C6.06426 9.47909 5.01681 9.25462 3.79718 9.50656ZM56.8161 9.58918C57.75 9.89362 58.1174 10.1303 58.7778 10.8529C59.6 11.7526 59.8359 12.441 59.834 13.9361C59.8327 15.0625 59.8078 15.2023 59.4881 15.8866C58.7879 17.3851 57.4009 18.3127 55.7521 18.3853C53.8528 18.4689 52.3136 17.5576 51.5298 15.8858C51.2611 15.3126 51.2364 15.1435 51.2364 13.881C51.2364 12.5908 51.2564 12.4614 51.5485 11.8663C52.5212 9.88457 54.7571 8.91809 56.8161 9.58918ZM75.0461 9.83637C76.591 10.5999 77.4309 12.0242 77.4309 13.881C77.4309 15.7509 76.4862 17.3187 74.9158 18.0549C74.3569 18.3169 74.1598 18.3483 73.0765 18.3483C71.991 18.3483 71.7968 18.3172 71.2325 18.0527C69.423 17.2046 68.3451 15.107 68.7077 13.1395C69.1475 10.7526 70.8957 9.31386 73.2597 9.39339C74.1052 9.42185 74.3105 9.4727 75.0461 9.83637ZM5.56965 15.2008C4.8829 15.6013 4.53545 15.962 4.0382 16.7901C3.49837 17.6891 3.24147 18.8743 3.40538 19.7093C3.71953 21.3098 4.98052 23.0497 6.35414 23.778C7.02346 24.133 8.38329 24.5268 8.38329 24.3656C8.38329 24.3189 8.23559 23.9882 8.05491 23.6309C7.62219 22.7745 7.46424 21.9654 7.52501 20.9166C7.57002 20.1382 7.633 19.9438 8.19963 18.8324C8.77619 17.7014 8.8245 17.5493 8.8245 16.8632C8.8245 16.0166 8.59408 15.5582 7.95068 15.1246C7.37643 14.7375 6.30505 14.7718 5.56965 15.2008ZM15.8288 16.3463C15.4119 16.5377 15.1663 16.8122 14.9506 17.3284C14.2485 19.0088 15.9528 21.129 18.3755 21.5891C19.5213 21.8068 20.8763 21.3947 22.193 20.4282C23.2054 19.685 24.1061 18.2565 24.2319 17.195C24.2682 16.889 24.274 16.6386 24.2449 16.6386C24.2158 16.6386 23.8986 16.7847 23.5401 16.9634C22.0541 17.704 20.3974 17.7135 19.0828 16.9888C17.8443 16.3061 17.7015 16.2554 16.9318 16.2249C16.4484 16.2059 16.0361 16.2513 15.8288 16.3463ZM10.7548 17.6945C10.2328 17.966 9.91883 18.3049 9.63821 18.8998C9.12144 19.9958 9.37569 21.842 10.2091 23.0446C11.5528 24.9834 14.7285 25.615 17.0973 24.4147C17.3703 24.2763 17.684 24.0631 17.7943 23.941C17.9911 23.7233 17.9878 23.7175 17.6289 23.6428C17.4275 23.6009 16.9123 23.4003 16.4841 23.197C15.1387 22.5586 14.2478 21.46 13.8891 19.997C13.7155 19.2885 13.3351 18.5318 12.9678 18.1648C12.3466 17.5435 11.4227 17.3472 10.7548 17.6945Z" fill="var(--fill-0, white)"/>
<path id="Layer 5" fill-rule="evenodd" clip-rule="evenodd" d="M10.5616 0.0555929C10.6375 0.0862574 10.7616 0.0862574 10.8374 0.0555929C10.9133 0.0250387 10.8512 0 10.6995 0C10.5479 0 10.4859 0.0250387 10.5616 0.0555929ZM32.2088 10.7924V20.83H33.753H35.2973V17.0851C35.2973 14.7773 35.3441 13.1159 35.4192 12.7557C35.6099 11.8413 36.1271 10.8546 36.6511 10.4058C37.4524 9.71943 37.9683 9.54018 39.1579 9.53489C40.0877 9.53081 40.2703 9.5639 40.7781 9.82874C41.0928 9.99298 41.4712 10.2894 41.6191 10.4874C42.409 11.5457 42.4586 11.9116 42.4631 16.7212L42.467 20.83H43.9561H45.4453V16.1123C45.4453 11.7117 45.4302 11.3403 45.2216 10.5873C44.9007 9.42955 44.5105 8.73044 43.794 8.02924C42.8039 7.06055 41.5671 6.60081 39.9506 6.60081C38.3012 6.60081 36.9667 7.11813 35.8764 8.18014L35.2973 8.74423V4.74947V0.754699H33.753H32.2088V10.7924ZM84.0621 1.33413C83.123 1.67805 82.6564 3.01758 83.1622 3.91755C83.529 4.57011 84.0487 4.87267 84.8027 4.87267C85.4928 4.87267 85.8489 4.72939 86.2379 4.29468C86.9901 3.45439 86.8387 2.18369 85.9037 1.49131C85.5385 1.22073 84.5921 1.13999 84.0621 1.33413ZM15.5744 4.8911C15.5766 5.0731 15.6013 5.13421 15.6293 5.02688C15.6574 4.91955 15.6555 4.77064 15.6253 4.69597C15.595 4.62129 15.5722 4.70909 15.5744 4.8911ZM21.5267 5.71837C21.5267 5.87004 21.5518 5.93214 21.5823 5.85625C21.613 5.78048 21.613 5.65638 21.5823 5.58049C21.5518 5.50472 21.5267 5.56671 21.5267 5.71837ZM21.518 6.2239C21.5233 6.3524 21.5495 6.37854 21.5846 6.29063C21.6165 6.21099 21.6125 6.1158 21.5759 6.07918C21.5393 6.04256 21.5133 6.10764 21.518 6.2239ZM53.5915 6.80928C51.0728 7.45864 49.2558 9.16173 48.462 11.6173C48.2206 12.3639 48.1754 12.7089 48.1722 13.8257C48.1676 15.4036 48.3483 16.1885 49.0101 17.4657C49.8037 18.9974 51.1897 20.1681 52.9641 20.8052C54.0379 21.1908 56.2665 21.286 57.435 20.9961C59.8261 20.403 61.6919 18.6663 62.5579 16.2276C62.8877 15.2988 62.9667 13.2676 62.7144 12.1995C62.1856 9.96066 60.6661 8.09851 58.6459 7.21377C57.2538 6.60412 55.0662 6.42906 53.5915 6.80928ZM71.9378 6.76836C70.8229 7.04026 70.121 7.42312 69.2709 8.22305L68.7745 8.69007L68.7425 7.81084L68.7104 6.93172H67.1707H65.6309V16.7488V26.5658H67.1751H68.7194V22.8016V19.0375L69.0779 19.4139C70.2329 20.627 71.5837 21.1609 73.4981 21.1609C75.5326 21.1609 76.9904 20.5893 78.3052 19.2762C79.5275 18.0553 80.1943 16.656 80.424 14.829C80.6206 13.2669 80.3999 11.9908 79.6687 10.4614C78.7691 8.57944 77.1827 7.28976 75.1356 6.77608C74.3085 6.56849 72.7727 6.56474 71.9378 6.76836ZM96.0196 6.81358C95.0587 7.08769 94.4582 7.43128 93.7357 8.12046L93.0965 8.73011V7.83091V6.93172H91.5523H90.008V13.8809V20.83H91.5523H93.0965V17.0947C93.0965 15.0404 93.1465 13.0957 93.2077 12.7734C93.4631 11.4265 94.156 10.4384 95.2379 9.87816C95.851 9.5607 96.0002 9.53026 96.9572 9.52761C97.9174 9.52496 98.0551 9.55243 98.6032 9.85521C98.9322 10.037 99.3422 10.3799 99.5143 10.6174C100.15 11.4943 100.184 11.7703 100.239 16.5006L100.289 20.83H101.767H103.244L103.243 16.2248C103.24 11.0745 103.196 10.6437 102.528 9.28582C101.662 7.52493 99.9486 6.5847 97.6583 6.61283C97.1043 6.61956 96.3948 6.70648 96.0196 6.81358ZM83.2795 13.8809V20.83H84.8237H86.368V13.8809V6.93172H84.8237H83.2795V13.8809ZM56.8159 9.58905C57.7499 9.89349 58.1173 10.1302 58.7777 10.8528C59.5999 11.7524 59.8357 12.4408 59.8338 13.936C59.8325 15.0623 59.8077 15.2022 59.4879 15.8865C58.7877 17.385 57.4008 18.3125 55.7519 18.3851C53.8526 18.4687 52.3134 17.5575 51.5296 15.8856C51.2609 15.3125 51.2362 15.1434 51.2362 13.8809C51.2362 12.5906 51.2563 12.4613 51.5484 11.8662C52.521 9.88444 54.757 8.91796 56.8159 9.58905ZM75.046 9.83624C76.5909 10.5998 77.4307 12.0241 77.4307 13.8809C77.4307 15.7507 76.4861 17.3186 74.9157 18.0548C74.3568 18.3167 74.1597 18.3482 73.0764 18.3482C71.9909 18.3482 71.7966 18.3171 71.2323 18.0526C69.4229 17.2044 68.345 15.1069 68.7076 13.1394C69.1474 10.7524 70.8956 9.31373 73.2596 9.39326C74.1051 9.42172 74.3103 9.47257 75.046 9.83624ZM24.9543 10.5717C24.9543 10.7841 24.977 10.871 25.0047 10.7648C25.0325 10.6586 25.0325 10.4849 25.0047 10.3787C24.977 10.2725 24.9543 10.3594 24.9543 10.5717ZM7.36978 14.9489C7.44931 14.9808 7.5445 14.9768 7.58112 14.9402C7.61774 14.9036 7.55266 14.8776 7.4364 14.8823C7.3079 14.8876 7.28176 14.9137 7.36978 14.9489ZM19.3929 15.6108C19.4724 15.6426 19.5676 15.6387 19.6042 15.602C19.6409 15.5654 19.5758 15.5394 19.4595 15.5441C19.331 15.5494 19.3049 15.5756 19.3929 15.6108ZM20.9372 17.5962C21.0167 17.6281 21.1119 17.6241 21.1485 17.5875C21.1851 17.5509 21.12 17.5249 21.0038 17.5296C20.8753 17.5349 20.8491 17.561 20.9372 17.5962ZM3.33696 19.1203C3.33817 19.363 3.36078 19.4492 3.38715 19.312C3.41351 19.1748 3.41252 18.9762 3.38494 18.8708C3.35736 18.7653 3.33574 18.8776 3.33696 19.1203ZM7.416 21.2712C7.416 21.4836 7.43872 21.5705 7.46641 21.4643C7.4942 21.358 7.4942 21.1844 7.46641 21.0782C7.43872 20.972 7.416 21.0589 7.416 21.2712ZM7.50942 22.3283C7.51472 22.4568 7.54086 22.4829 7.57605 22.395C7.60792 22.3154 7.60395 22.2202 7.56733 22.1835C7.53071 22.1469 7.50468 22.212 7.50942 22.3283ZM5.12918 22.9258C5.23893 23.0471 5.35364 23.1464 5.38398 23.1464C5.41431 23.1464 5.34923 23.0471 5.23948 22.9258C5.12973 22.8044 5.01501 22.7052 4.98468 22.7052C4.95434 22.7052 5.01942 22.8044 5.12918 22.9258ZM8.28155 24.3137C8.28685 24.4422 8.31299 24.4684 8.34817 24.3805C8.38005 24.3008 8.37608 24.2056 8.33946 24.169C8.30284 24.1324 8.27681 24.1975 8.28155 24.3137Z" fill="var(--fill-0, white)"/>
<path id="Layer 6" fill-rule="evenodd" clip-rule="evenodd" d="M32.2088 10.7924V20.83H33.753H35.2973V17.0851C35.2973 14.7773 35.344 13.1159 35.4192 12.7557C35.6099 11.8414 36.1271 10.8546 36.651 10.4059C37.4524 9.71945 37.9683 9.5402 39.1579 9.53491C40.0877 9.53083 40.2703 9.56392 40.7781 9.82876C41.0928 9.993 41.4712 10.2894 41.6191 10.4874C42.409 11.5457 42.4585 11.9116 42.4631 16.7212L42.467 20.83H43.9561H45.4452V16.1123C45.4452 11.7118 45.4302 11.3404 45.2215 10.5873C44.9007 9.42957 44.5105 8.73046 43.794 8.02926C42.8039 7.06057 41.5671 6.60082 39.9506 6.60082C38.3012 6.60082 36.9667 7.11815 35.8764 8.18015L35.2973 8.74425V4.74948V0.754717H33.753H32.2088V10.7924ZM84.0621 1.33414C83.1229 1.67807 82.6564 3.0176 83.1622 3.91757C83.529 4.57013 84.0487 4.87269 84.8027 4.87269C85.4928 4.87269 85.8489 4.72941 86.2379 4.2947C86.9901 3.45441 86.8386 2.1837 85.9037 1.49133C85.5385 1.22075 84.5921 1.14001 84.0621 1.33414ZM53.5915 6.8093C51.0728 7.45866 49.2558 9.16175 48.4619 11.6173C48.2206 12.3639 48.1754 12.7089 48.1722 13.8257C48.1675 15.4036 48.3483 16.1885 49.01 17.4658C49.8037 18.9974 51.1896 20.1681 52.9641 20.8052C54.0379 21.1908 56.2665 21.286 57.4349 20.9961C59.8261 20.403 61.6919 18.6663 62.5579 16.2276C62.8877 15.2988 62.9667 13.2676 62.7144 12.1995C62.1856 9.96068 60.6661 8.09853 58.6459 7.21378C57.2538 6.60413 55.0662 6.42908 53.5915 6.8093ZM71.9378 6.76837C70.8228 7.04027 70.121 7.42314 69.2709 8.22306L68.7745 8.69009L68.7425 7.81086L68.7104 6.93174H67.1707H65.6308V16.7488V26.5658H67.1751H68.7194V22.8016V19.0375L69.0778 19.4139C70.2328 20.6271 71.5837 21.1609 73.498 21.1609C75.5326 21.1609 76.9904 20.5893 78.3052 19.2762C79.5275 18.0553 80.1943 16.656 80.424 14.8291C80.6206 13.2669 80.3999 11.9908 79.6687 10.4615C78.769 8.57945 77.1826 7.28978 75.1356 6.7761C74.3085 6.5685 72.7727 6.56475 71.9378 6.76837ZM96.0196 6.8136C95.0587 7.08771 94.4582 7.4313 93.7357 8.12048L93.0965 8.73013V7.83093V6.93174H91.5523H90.008V13.8809V20.83H91.5523H93.0965V17.0947C93.0965 15.0404 93.1465 13.0957 93.2077 12.7734C93.4631 11.4265 94.156 10.4384 95.2378 9.87817C95.851 9.56072 96.0002 9.53027 96.9571 9.52763C97.9173 9.52498 98.0551 9.55245 98.6032 9.85523C98.9321 10.037 99.3421 10.3799 99.5143 10.6174C100.15 11.4943 100.184 11.7703 100.239 16.5006L100.289 20.83H101.767H103.244L103.243 16.2248C103.24 11.0745 103.196 10.6437 102.528 9.28584C101.662 7.52495 99.9486 6.58472 97.6582 6.61285C97.1043 6.61958 96.3948 6.70649 96.0196 6.8136ZM83.2795 13.8809V20.83H84.8237H86.368V13.8809V6.93174H84.8237H83.2795V13.8809ZM56.8159 9.58907C57.7499 9.89351 58.1173 10.1302 58.7777 10.8528C59.5999 11.7525 59.8357 12.4409 59.8338 13.936C59.8325 15.0623 59.8077 15.2022 59.4879 15.8865C58.7877 17.385 57.4007 18.3126 55.7519 18.3851C53.8526 18.4688 52.3134 17.5575 51.5296 15.8857C51.2609 15.3125 51.2362 15.1434 51.2362 13.8809C51.2362 12.5907 51.2563 12.4613 51.5483 11.8662C52.521 9.88446 54.757 8.91798 56.8159 9.58907ZM75.0459 9.83626C76.5909 10.5998 77.4307 12.0241 77.4307 13.8809C77.4307 15.7508 76.4861 17.3186 74.9157 18.0548C74.3568 18.3168 74.1597 18.3482 73.0764 18.3482C71.9909 18.3482 71.7966 18.3171 71.2323 18.0526C69.4229 17.2044 68.345 15.1069 68.7076 13.1394C69.1473 10.7524 70.8955 9.31375 73.2596 9.39328C74.1051 9.42173 74.3103 9.47259 75.0459 9.83626Z" fill="var(--fill-0, white)"/>
<path id="Layer 7" fill-rule="evenodd" clip-rule="evenodd" d="M32.2088 10.7924V20.83H33.753H35.2973V17.0851C35.2973 14.7773 35.344 13.1159 35.4192 12.7557C35.6099 11.8414 36.1271 10.8546 36.651 10.4059C37.4524 9.71945 37.9683 9.5402 39.1579 9.53491C40.0877 9.53083 40.2703 9.56392 40.7781 9.82876C41.0928 9.993 41.4712 10.2894 41.6191 10.4874C42.409 11.5457 42.4585 11.9116 42.4631 16.7212L42.467 20.83H43.9561H45.4452V16.1123C45.4452 11.7118 45.4302 11.3404 45.2215 10.5873C44.9007 9.42957 44.5105 8.73046 43.794 8.02926C42.8039 7.06057 41.5671 6.60082 39.9506 6.60082C38.3012 6.60082 36.9667 7.11815 35.8764 8.18015L35.2973 8.74425V4.74948V0.754717H33.753H32.2088V10.7924ZM84.0621 1.33414C83.1229 1.67807 82.6564 3.0176 83.1622 3.91757C83.529 4.57013 84.0487 4.87269 84.8027 4.87269C85.4928 4.87269 85.8489 4.72941 86.2379 4.2947C86.9901 3.45441 86.8386 2.1837 85.9037 1.49133C85.5385 1.22075 84.5921 1.14001 84.0621 1.33414ZM53.5915 6.8093C51.0728 7.45866 49.2558 9.16175 48.4619 11.6173C48.2206 12.3639 48.1754 12.7089 48.1722 13.8257C48.1675 15.4036 48.3483 16.1885 49.01 17.4658C49.8037 18.9974 51.1896 20.1681 52.9641 20.8052C54.0379 21.1908 56.2665 21.286 57.4349 20.9961C59.8261 20.403 61.6919 18.6663 62.5579 16.2276C62.8877 15.2988 62.9667 13.2676 62.7144 12.1995C62.1856 9.96068 60.6661 8.09853 58.6459 7.21378C57.2538 6.60413 55.0662 6.42908 53.5915 6.8093ZM71.9378 6.76837C70.8228 7.04027 70.121 7.42314 69.2709 8.22306L68.7745 8.69009L68.7425 7.81086L68.7104 6.93174H67.1707H65.6308V16.7488V26.5658H67.1751H68.7194V22.8016V19.0375L69.0778 19.4139C70.2328 20.6271 71.5837 21.1609 73.498 21.1609C75.5326 21.1609 76.9904 20.5893 78.3052 19.2762C79.5275 18.0553 80.1943 16.656 80.424 14.8291C80.6206 13.2669 80.3999 11.9908 79.6687 10.4615C78.769 8.57945 77.1826 7.28978 75.1356 6.7761C74.3085 6.5685 72.7727 6.56475 71.9378 6.76837ZM96.0196 6.8136C95.0587 7.08771 94.4582 7.4313 93.7357 8.12048L93.0965 8.73013V7.83093V6.93174H91.5523H90.008V13.8809V20.83H91.5523H93.0965V17.0947C93.0965 15.0404 93.1465 13.0957 93.2077 12.7734C93.4631 11.4265 94.156 10.4384 95.2378 9.87817C95.851 9.56072 96.0002 9.53027 96.9571 9.52763C97.9173 9.52498 98.0551 9.55245 98.6032 9.85523C98.9321 10.037 99.3421 10.3799 99.5143 10.6174C100.15 11.4943 100.184 11.7703 100.239 16.5006L100.289 20.83H101.767H103.244L103.243 16.2248C103.24 11.0745 103.196 10.6437 102.528 9.28584C101.662 7.52495 99.9486 6.58472 97.6582 6.61285C97.1043 6.61958 96.3948 6.70649 96.0196 6.8136ZM83.2795 13.8809V20.83H84.8237H86.368V13.8809V6.93174H84.8237H83.2795V13.8809ZM56.8159 9.58907C57.7499 9.89351 58.1173 10.1302 58.7777 10.8528C59.5999 11.7525 59.8357 12.4409 59.8338 13.936C59.8325 15.0623 59.8077 15.2022 59.4879 15.8865C58.7877 17.385 57.4007 18.3126 55.7519 18.3851C53.8526 18.4688 52.3134 17.5575 51.5296 15.8857C51.2609 15.3125 51.2362 15.1434 51.2362 13.8809C51.2362 12.5907 51.2563 12.4613 51.5483 11.8662C52.521 9.88446 54.757 8.91798 56.8159 9.58907ZM75.0459 9.83626C76.5909 10.5998 77.4307 12.0241 77.4307 13.8809C77.4307 15.7508 76.4861 17.3186 74.9157 18.0548C74.3568 18.3168 74.1597 18.3482 73.0764 18.3482C71.9909 18.3482 71.7966 18.3171 71.2323 18.0526C69.4229 17.2044 68.345 15.1069 68.7076 13.1394C69.1473 10.7524 70.8955 9.31375 73.2596 9.39328C74.1051 9.42173 74.3103 9.47259 75.0459 9.83626Z" fill="var(--fill-0, white)"/>
<path id="Layer 8" fill-rule="evenodd" clip-rule="evenodd" d="M84.6857 4.90895C84.7616 4.93962 84.8857 4.93962 84.9615 4.90895C85.0374 4.8784 84.9753 4.85336 84.8236 4.85336C84.672 4.85336 84.61 4.8784 84.6857 4.90895ZM86.3095 13.8808C86.3095 17.7332 86.3233 19.3091 86.3402 17.383C86.3572 15.4568 86.3572 12.3048 86.3402 10.3787C86.3233 8.45246 86.3095 10.0285 86.3095 13.8808ZM50.8359 8.11747C50.6988 8.29241 50.7027 8.29627 50.8776 8.15917C51.0614 8.015 51.1197 7.92444 51.0289 7.92444C51.0061 7.92444 50.9192 8.01125 50.8359 8.11747ZM60.3913 8.36565C60.5011 8.48699 60.6158 8.58626 60.6461 8.58626C60.6764 8.58626 60.6114 8.48699 60.5016 8.36565C60.3919 8.24432 60.2771 8.14505 60.2468 8.14505C60.2165 8.14505 60.2816 8.24432 60.3913 8.36565ZM58.2404 10.2753C58.2404 10.2943 58.4016 10.4557 58.5989 10.6338L58.9574 10.9578L58.6334 10.5993C58.3314 10.2652 58.2404 10.1901 58.2404 10.2753ZM100.184 12.833C100.185 13.0756 100.207 13.1619 100.234 13.0247C100.26 12.8875 100.259 12.6889 100.232 12.5835C100.204 12.478 100.182 12.5903 100.184 12.833ZM51.1059 13.8808C51.1059 14.2752 51.126 14.4365 51.1504 14.2393C51.1749 14.0422 51.1749 13.7195 51.1504 13.5224C51.126 13.3252 51.1059 13.4865 51.1059 13.8808ZM48.1255 13.8808C48.1255 14.2145 48.1461 14.351 48.1714 14.1842C48.1967 14.0174 48.1967 13.7443 48.1714 13.5775C48.1461 13.4107 48.1255 13.5472 48.1255 13.8808ZM80.4202 13.5039C80.4255 13.6324 80.4516 13.6586 80.4868 13.5707C80.5187 13.491 80.5147 13.3958 80.4781 13.3592C80.4415 13.3226 80.4154 13.3877 80.4202 13.5039ZM80.4202 14.2761C80.4255 14.4046 80.4516 14.4307 80.4868 14.3428C80.5187 14.2632 80.5147 14.168 80.4781 14.1313C80.4415 14.0947 80.4154 14.1598 80.4202 14.2761ZM52.3391 17.19C52.4489 17.3113 52.5636 17.4106 52.5939 17.4106C52.6243 17.4106 52.5592 17.3113 52.4494 17.19C52.3397 17.0686 52.225 16.9694 52.1946 16.9694C52.1643 16.9694 52.2294 17.0686 52.3391 17.19ZM72.9405 18.4797C73.0478 18.5078 73.1967 18.5059 73.2714 18.4757C73.3461 18.4454 73.2583 18.4226 73.0763 18.4248C72.8943 18.427 72.8331 18.4517 72.9405 18.4797ZM49.9676 18.8997C50.1101 19.0513 50.2515 19.1754 50.2818 19.1754C50.3122 19.1754 50.2204 19.0513 50.0779 18.8997C49.9354 18.748 49.794 18.6239 49.7636 18.6239C49.7333 18.6239 49.8251 18.748 49.9676 18.8997ZM78.2536 19.3133L77.9296 19.6718L78.2881 19.3478C78.4853 19.1697 78.6466 19.0083 78.6466 18.9894C78.6466 18.9041 78.5556 18.9792 78.2536 19.3133ZM68.9399 19.3274C68.9399 19.3503 69.0268 19.4372 69.1329 19.5205C69.3078 19.6576 69.3117 19.6537 69.1746 19.4788C69.0304 19.295 68.9399 19.2367 68.9399 19.3274ZM60.1014 19.6994C59.9643 19.8743 59.9682 19.8782 60.1431 19.7411C60.2492 19.6578 60.3362 19.5709 60.3362 19.548C60.3362 19.4573 60.2456 19.5156 60.1014 19.6994Z" fill="var(--fill-0, white)"/>
</g>
</svg>
